<?xml version="1.0" standalone="no"?><!DOCTYPE svg PUBLIC "-//W3C//DTD SVG 1.1//EN" "http://www.w3.org/Graphics/SVG/1.1/DTD/svg11.dtd"><svg t="1539412190225" class="icon" style="" viewBox="0 0 1024 1024" version="1.1" xmlns="http://www.w3.org/2000/svg" p-id="2550" xmlns:xlink="http://www.w3.org/1999/xlink" width="32" height="32"><defs><style type="text/css"></style></defs><path d="M972.8 436.9408 972.8 230.4c0-56.32-43.7248-102.4-97.0752-102.4L148.1728 128C94.8224 128 51.2 174.08 51.2 230.4l0 206.5408c41.7792 5.7344 72.704 27.3408 72.704 75.0592s-31.0272 69.3248-72.704 75.0592L51.2 793.6c0 56.32 43.6224 102.4 96.9728 102.4l727.552 0c53.3504 0 97.0752-46.08 97.0752-102.4L972.8 587.0592c-41.7792-5.7344-72.8064-27.3408-72.8064-75.0592C899.9936 464.384 931.0208 442.6752 972.8 436.9408zM921.6 625.7664 921.6 793.6c0 27.7504-20.992 51.2-45.8752 51.2l-94.9248 0 0-51.2c0-14.1312-11.4688-25.6-25.6-25.6-14.1312 0-25.6 11.4688-25.6 25.6l0 51.2-435.2 0 0-51.2c0-14.1312-11.4688-25.6-25.6-25.6-14.1312 0-25.6 11.4688-25.6 25.6l0 51.2-95.0272 0c-24.7808 0-45.7728-23.4496-45.7728-51.2L102.4 625.7664c46.2848-19.968 72.704-60.3136 72.704-113.7664 0-53.4528-26.5216-93.7984-72.704-113.7664L102.4 230.4c0-27.7504 20.992-51.2 45.7728-51.2l95.0272 0 0 51.2c0 14.1312 11.4688 25.6 25.6 25.6 14.1312 0 25.6-11.4688 25.6-25.6l0-51.2 435.2 0 0 51.2c0 14.1312 11.4688 25.6 25.6 25.6 14.1312 0 25.6-11.4688 25.6-25.6l0-51.2 94.9248 0c24.8832 0 45.8752 23.4496 45.8752 51.2l0 167.8336c-46.2848 19.968-72.8064 60.3136-72.8064 113.7664C848.7936 565.4528 875.3152 605.7984 921.6 625.7664z" p-id="2551" fill="#575757"></path><path d="M642.2528 438.3744l-61.6448-8.9088-27.5456-55.808c-16.384-33.4848-65.6384-33.3824-82.0224-0.1024L443.392 429.4656l-61.6448 8.9088c-18.6368 2.7648-32.9728 14.2336-38.2976 30.6176-5.3248 16.2816-0.3072 34.4064 13.0048 47.3088l44.6464 43.52-10.5472 61.3376c-2.56 14.7456 0.9216 28.4672 9.6256 38.8096 13.312 15.872 36.6592 19.6608 56.7296 9.4208l55.0912-28.9792 55.0912 28.9792c7.5776 3.9936 15.4624 6.0416 23.4496 6.0416 12.9024 0 25.088-5.632 33.28-15.2576 8.8064-10.3424 12.288-24.1664 9.728-38.912l-10.5472-61.44 44.544-43.4176c13.312-13.0048 18.3296-31.1296 13.0048-47.4112C675.2256 452.608 660.8896 441.1392 642.2528 438.3744zM637.7472 485.7856l-47.4112 46.2848c-7.3728 7.2704-11.8784 20.992-10.0352 31.1296l10.9568 69.3248c-0.1024 0.1024-0.1024 0.2048-0.7168 0.2048l-61.952-31.8464c-4.4032-2.3552-10.4448-3.584-16.4864-3.584-5.9392 0-11.9808 1.1264-16.4864 3.4816l-58.4704 30.72c-2.4576 1.2288-3.9936 1.024-4.5056-3.1744l11.1616-65.1264c1.7408-10.24-2.6624-23.9616-10.1376-31.3344L384 482.2016c0.1024-0.2048 1.2288-1.2288 3.8912-1.6384l65.536-9.5232c10.3424-1.536 21.9136-10.0352 26.624-19.3536l31.9488-62.5664 31.9488 62.5664c4.608 9.3184 16.2816 17.8176 26.624 19.3536l65.4336 9.5232C638.7712 480.9728 639.8976 481.9968 637.7472 485.7856z" p-id="2552" fill="#575757"></path></svg>