<?xml version="1.0" standalone="no"?><!DOCTYPE svg PUBLIC "-//W3C//DTD SVG 1.1//EN" "http://www.w3.org/Graphics/SVG/1.1/DTD/svg11.dtd"><svg t="1539088225276" class="icon" style="" viewBox="0 0 1024 1024" version="1.1" xmlns="http://www.w3.org/2000/svg" p-id="2066" xmlns:xlink="http://www.w3.org/1999/xlink" width="32" height="32"><defs><style type="text/css"></style></defs><path d="M520 928C468.128 928.272 208 538.448 208 408a312 312 0 1 1 624 0c0 128.704-260.944 520.272-312 520z m0-780A260 260 0 0 0 260 408c0 108.704 216.768 442.224 260 442 42.56 0.224 260-334.8 260-442A260 260 0 0 0 520 148z m0 390a130 130 0 1 1 130-130 130 130 0 0 1-130 130z m0-208a78 78 0 1 0 78 78 78 78 0 0 0-78-78z" p-id="2067" fill="#000000"></path></svg>