<?xml version="1.0" standalone="no"?><!DOCTYPE svg PUBLIC "-//W3C//DTD SVG 1.1//EN" "http://www.w3.org/Graphics/SVG/1.1/DTD/svg11.dtd"><svg t="1539532017270" class="icon" style="" viewBox="0 0 1024 1024" version="1.1" xmlns="http://www.w3.org/2000/svg" p-id="4409" xmlns:xlink="http://www.w3.org/1999/xlink" width="16" height="16"><defs><style type="text/css"></style></defs><path d="M512.414 62.99c-247.824 0-449.424 201.6-449.424 449.424 0 247.842 201.592 449.424 449.424 449.424 247.842 0 449.424-201.582 449.424-449.424 0-247.824-201.582-449.424-449.424-449.424zM512.414 897.47c-212.283 0-385.047-172.773-385.047-385.056s172.593-385.047 385.047-385.047c212.463 0 385.047 172.593 385.047 385.047 0 212.463-172.764 385.047-385.047 385.047z" p-id="4410" fill="#000000"></path><path d="M512.585 512.414v-224.542c0-17.775-14.319-32.274-32.103-32.274-17.775 0-32.094 14.499-32.094 32.274v256.815c0 0.019 0 0.041 0 0.064 0 17.695 14.345 32.040 32.040 32.040 0.020 0 0.037 0 0.057 0h192.615c17.775 0 32.274-14.328 32.274-32.103-0.18-17.947-14.67-32.274-32.274-32.274h-160.515z" p-id="4411" fill="#000000"></path></svg>